<svg width="16" height="16" viewBox="0 0 18 18" fill="none" xmlns="http://www.w3.org/2000/svg">
<path d="M12.7503 10.0016L9.83366 11.9458V14.9425L14.9978 11.5L12.7503 10.0016ZM11.2478 8.99996L9.00033 7.50163L6.75283 8.99996L9.00033 10.4983L11.2478 8.99996ZM15.667 8.05663L14.2528 8.99996L15.667 9.9433V8.05663ZM14.9978 6.49996L9.83366 3.05746V6.05413L12.7503 7.9983L14.9978 6.49996ZM5.25033 7.9983L8.16699 6.05413V3.05746L3.00283 6.49996L5.25033 7.9983ZM3.00283 11.5L8.16699 14.9425V11.9458L5.25033 10.0016L3.00283 11.5ZM2.33366 9.9433L3.74783 8.99996L2.33366 8.05663V9.9433ZM0.666992 6.49996C0.666972 6.3628 0.700807 6.22776 0.765496 6.10681C0.830186 5.98586 0.923729 5.88275 1.03783 5.80663L8.53783 0.806629C8.67477 0.715263 8.8357 0.666504 9.00033 0.666504C9.16495 0.666504 9.32588 0.715263 9.46283 0.806629L16.9628 5.80663C17.0769 5.88275 17.1705 5.98586 17.2352 6.10681C17.2998 6.22776 17.3337 6.3628 17.3337 6.49996V11.5C17.3337 11.6371 17.2998 11.7722 17.2352 11.8931C17.1705 12.0141 17.0769 12.1172 16.9628 12.1933L9.46283 17.1933C9.32588 17.2847 9.16495 17.3334 9.00033 17.3334C8.8357 17.3334 8.67477 17.2847 8.53783 17.1933L1.03783 12.1933C0.923729 12.1172 0.830186 12.0141 0.765496 11.8931C0.700807 11.7722 0.666972 11.6371 0.666992 11.5V6.49996Z" fill="white"/>
</svg>
