<svg width="16" height="16" viewBox="0 0 18 18" fill="none" xmlns="http://www.w3.org/2000/svg">
<path d="M17.0529 7.32265L17.0295 7.26265L14.7637 1.35098C14.7179 1.23435 14.6362 1.13528 14.5305 1.06803C14.4248 1.00079 14.3004 0.968849 14.1754 0.976817C14.0502 0.982388 13.93 1.02749 13.8321 1.10565C13.7342 1.18381 13.6635 1.291 13.6304 1.41182L12.1004 6.10015H5.90203L4.36953 1.41265C4.33673 1.29178 4.26649 1.18442 4.16887 1.10596C4.07125 1.02751 3.95129 0.982006 3.82619 0.975984C3.70114 0.96918 3.57709 1.00168 3.47143 1.06893C3.36577 1.13618 3.28381 1.23481 3.23703 1.35098L0.968695 7.27098L0.945361 7.32932C0.619704 8.18193 0.579648 9.11722 0.831215 9.99455C1.08278 10.8719 1.61238 11.6438 2.34036 12.1943L2.34869 12.2002L2.36869 12.216L5.82453 14.8027L7.53286 16.0968L8.57203 16.8835C8.69396 16.9756 8.84258 17.0254 8.99536 17.0254C9.14815 17.0254 9.29677 16.9756 9.41869 16.8835L10.4579 16.0968L12.1662 14.8027L15.6429 12.2002L15.6512 12.1935C16.3818 11.6437 16.9137 10.8711 17.1665 9.99246C17.4194 9.11377 17.3795 8.17667 17.0529 7.32265Z" fill="white"/>
</svg>
