<svg width="16" height="16" viewBox="0 0 18 20" fill="none" xmlns="http://www.w3.org/2000/svg">
<path d="M14.8199 18.2194V12.8844H16.6005V20H0.536133V12.8844H2.31051V18.2194H14.8199ZM4.09051 16.4419H13.043V14.6619H4.09051V16.4419ZM4.30926 12.3994L13.0436 14.2219L13.418 12.4969L4.68738 10.6769L4.30926 12.3994ZM5.44176 8.18688L13.5286 11.96L14.2805 10.335L6.19488 6.55937L5.44238 8.17438L5.44176 8.18688ZM7.70426 4.19938L14.5499 9.9125L15.683 8.56063L8.83738 2.85125L7.71051 4.19562L7.70426 4.19938ZM12.1249 0L10.6699 1.0775L16.008 8.24813L17.463 7.17062L12.1249 0Z" fill="white"/>
</svg>
